<?xml version="1.0" standalone="no"?>
<!DOCTYPE svg PUBLIC "-//W3C//DTD SVG 20010904//EN"
 "http://www.w3.org/TR/2001/REC-SVG-20010904/DTD/svg10.dtd">
<svg version="1.0" xmlns="http://www.w3.org/2000/svg"
 width="225.000000pt" height="225.000000pt" viewBox="0 0 225.000000 225.000000"
 preserveAspectRatio="xMidYMid meet">

<g transform="translate(0.000000,225.000000) scale(0.100000,-0.100000)"
fill="#000000" stroke="none">
<path d="M0 1125 l0 -1125 513 1 c453 1 504 2 440 14 -226 41 -410 141 -569
308 -101 107 -172 217 -220 345 -49 131 -64 221 -64 380 0 116 4 156 25 238
30 117 104 272 174 365 60 78 170 184 243 234 88 59 180 45 241 -37 23 -30 27
-120 8 -156 -6 -12 -50 -53 -97 -93 -132 -110 -199 -205 -250 -354 -23 -69
-27 -96 -27 -195 -1 -141 16 -211 80 -340 79 -159 225 -288 392 -346 266 -92
543 -27 741 176 135 138 202 302 203 500 0 122 -17 200 -70 305 -49 99 -104
166 -205 252 -48 41 -93 84 -99 96 -20 37 -16 123 7 154 61 83 153 97 241 38
196 -132 358 -364 419 -602 23 -91 25 -111 21 -268 -4 -147 -8 -182 -31 -258
-117 -390 -428 -671 -819 -742 -64 -12 -12 -13 441 -14 l512 -1 0 1125 0 1125
-557 0 c-483 -1 -553 -3 -520 -14 21 -8 47 -22 59 -33 48 -44 48 -38 48 -601
l0 -529 -22 -33 c-37 -53 -72 -74 -126 -74 -58 0 -107 26 -138 72 -21 30 -22
47 -29 389 -9 411 -1 692 19 732 19 37 48 61 93 77 33 11 -37 13 -519 14
l-558 0 0 -1125z"/>
</g>
</svg>
