<?xml version="1.0" standalone="no"?>
<!DOCTYPE svg PUBLIC "-//W3C//DTD SVG 20010904//EN"
 "http://www.w3.org/TR/2001/REC-SVG-20010904/DTD/svg10.dtd">
<svg version="1.0" xmlns="http://www.w3.org/2000/svg"
 width="1200.000000pt" height="1200.000000pt" viewBox="0 0 1200.000000 1200.000000"
 preserveAspectRatio="xMidYMid meet">

<g transform="translate(0.000000,1200.000000) scale(0.100000,-0.100000)"
fill="#000000" stroke="none">
<path d="M5795 10827 c-63 -16 -170 -66 -227 -105 -64 -44 -155 -140 -193
-202 -41 -68 -82 -201 -94 -306 -6 -47 -9 -922 -8 -2164 2 -2346 -5 -2122 79
-2300 106 -223 385 -385 628 -366 278 22 502 200 594 471 l31 90 2 2125 c1
1247 -2 2150 -7 2185 -39 256 -195 453 -433 546 -73 29 -95 33 -202 35 -75 2
-139 -1 -170 -9z"/>
<path d="M3835 9460 c-97 -8 -146 -23 -240 -72 -78 -40 -279 -179 -380 -262
-44 -36 -101 -83 -127 -104 -95 -76 -477 -471 -575 -594 -296 -374 -508 -731
-664 -1123 -22 -55 -51 -127 -65 -160 -32 -79 -86 -256 -114 -375 -67 -286
-73 -316 -85 -415 0 -5 -4 -30 -8 -55 -4 -25 -9 -63 -12 -85 -23 -159 -22
-776 1 -1000 10 -100 43 -318 54 -354 5 -19 12 -53 16 -75 29 -200 179 -672
285 -896 94 -198 159 -327 181 -360 13 -19 43 -69 67 -110 292 -496 692 -941
1166 -1296 100 -75 276 -193 335 -224 25 -14 52 -30 60 -36 55 -44 408 -218
610 -301 126 -52 395 -139 518 -169 230 -54 271 -63 387 -79 66 -9 123 -19
127 -21 26 -16 352 -36 563 -35 283 2 420 11 590 41 28 5 75 11 105 15 132 14
451 89 645 152 108 35 380 139 400 153 6 3 26 13 45 20 58 22 300 144 396 199
109 63 105 60 151 92 21 14 85 56 142 95 292 195 675 544 910 829 303 367 547
782 716 1215 29 74 63 169 75 210 12 41 29 90 37 109 17 41 98 355 113 437 5
33 15 88 20 124 6 36 13 79 16 95 7 40 21 156 35 290 20 188 16 690 -6 805 -3
14 -14 93 -25 175 -23 175 -53 327 -103 515 -39 145 -114 372 -146 443 -11 24
-29 66 -39 93 -28 68 -89 203 -109 239 -9 17 -38 72 -65 123 -117 224 -315
516 -504 743 -134 162 -426 456 -585 590 -252 212 -485 359 -617 390 -76 18
-270 12 -333 -10 -140 -48 -264 -134 -334 -229 -50 -69 -112 -198 -129 -272
-30 -126 -11 -306 43 -406 12 -21 21 -43 21 -48 0 -17 88 -132 136 -177 27
-25 69 -59 94 -75 263 -170 577 -463 764 -714 181 -240 311 -464 411 -705 63
-153 105 -290 148 -490 117 -537 73 -1153 -121 -1685 -52 -142 -142 -350 -175
-405 -6 -11 -34 -59 -61 -105 -45 -77 -108 -172 -190 -288 -87 -122 -309 -359
-491 -523 -127 -115 -409 -300 -600 -394 -151 -75 -356 -161 -430 -180 -27 -7
-97 -26 -155 -43 -93 -26 -168 -42 -265 -58 -16 -2 -39 -6 -50 -9 -72 -15
-224 -25 -450 -29 -252 -5 -369 4 -550 38 -16 4 -66 13 -110 21 -182 33 -457
125 -666 223 -240 112 -503 285 -718 472 -79 68 -290 282 -328 332 -178 233
-208 276 -310 443 -27 45 -168 335 -196 405 -83 206 -149 443 -189 680 -29
170 -37 621 -14 820 21 181 38 279 71 400 14 52 30 115 37 140 24 93 150 388
219 514 185 337 369 566 728 906 28 26 222 171 348 261 127 89 220 229 258
386 22 91 17 272 -10 348 -79 227 -235 381 -450 443 -91 27 -140 31 -250 22z"/>
</g>
</svg>
