<?xml version="1.0" standalone="no"?>
<!DOCTYPE svg PUBLIC "-//W3C//DTD SVG 20010904//EN"
 "http://www.w3.org/TR/2001/REC-SVG-20010904/DTD/svg10.dtd">
<svg version="1.0" xmlns="http://www.w3.org/2000/svg"
 width="840.000000pt" height="895.000000pt" viewBox="0 0 840.000000 895.000000"
 preserveAspectRatio="xMidYMid meet">

<g transform="translate(0.000000,895.000000) scale(0.100000,-0.100000)"
fill="#000000" stroke="none">
<path d="M4060 8526 c-195 -55 -357 -231 -389 -423 -9 -49 -11 -631 -9 -2138
l3 -2070 27 -69 c144 -372 610 -476 887 -197 78 78 114 142 141 247 20 76 20
117 20 2133 0 2266 4 2119 -62 2245 -18 34 -63 92 -103 132 -109 110 -219 154
-380 153 -49 0 -110 -6 -135 -13z"/>
<path d="M2555 8040 c-64 -13 -141 -47 -275 -120 -1317 -721 -2116 -2105
-2077 -3595 10 -342 43 -586 122 -898 173 -681 512 -1284 1005 -1791 650 -668
1438 -1062 2380 -1191 157 -22 623 -31 810 -16 1334 106 2527 877 3183 2059
342 614 515 1325 494 2027 -18 609 -156 1164 -420 1691 -369 736 -942 1325
-1672 1721 -170 92 -230 113 -335 120 -312 19 -570 -223 -570 -534 0 -101 17
-169 63 -258 40 -76 134 -170 212 -213 403 -223 559 -335 796 -571 878 -876
1099 -2230 548 -3346 -602 -1218 -1963 -1863 -3284 -1555 -538 125 -1050 417
-1435 816 -136 141 -220 246 -335 419 -245 368 -390 747 -460 1205 -22 145
-30 483 -16 652 49 585 271 1134 645 1598 90 112 317 336 436 430 140 110 297
213 453 296 71 38 154 89 185 114 68 55 132 146 161 231 28 80 38 214 22 292
-41 193 -210 366 -402 412 -68 16 -168 18 -234 5z"/>
</g>
</svg>
